<svg width="15" height="15" viewBox="0 0 15 15" fill="none" xmlns="http://www.w3.org/2000/svg">
<g clip-path="url(#clip0_1_67)">
<path d="M7.22073 0.00164795C3.23954 0.00164795 0 3.24063 0 7.22238C0 11.2041 3.23954 14.4431 7.22073 14.4431C11.2025 14.4431 14.4415 11.2041 14.4415 7.22238C14.4415 3.24063 11.2019 0.00164795 7.22073 0.00164795ZM7.22073 13.3245C3.8559 13.3245 1.11862 10.5872 1.11862 7.22238C1.11862 3.85755 3.8559 1.12027 7.22073 1.12027C10.5856 1.12027 13.3228 3.85755 13.3228 7.22238C13.3228 10.5872 10.5856 13.3245 7.22073 13.3245Z" fill="white" fill-opacity="0.51"/>
<path d="M10.0177 6.61041H4.42456C4.11582 6.61041 3.86523 6.86099 3.86523 7.16974C3.86523 7.47848 4.11582 7.72906 4.42456 7.72906H10.0177C10.3264 7.72906 10.577 7.47848 10.577 7.16974C10.577 6.86099 10.3264 6.61041 10.0177 6.61041Z" fill="white" fill-opacity="0.51"/>
</g>
<defs>
<clipPath id="clip0_1_67">
<rect width="14.4415" height="14.4415" fill="white"/>
</clipPath>
</defs>
</svg>
