<svg width="355" height="145" viewBox="0 0 355 145" fill="none" xmlns="http://www.w3.org/2000/svg">
<path d="M6.50162 34.7356H18.818L23.8728 55.3816H24.2999L36.1892 34.7356H48.5056L42.4542 71.1865H32.7719L36.2604 50.1133H35.9756L24.4423 70.9018H18.6045L13.9769 49.971H13.6921L10.1325 71.1865H0.450195L6.50162 34.7356ZM85.3748 53.6018C84.7103 57.5649 83.3932 60.8872 81.4235 63.5689C79.4539 66.2505 77.063 68.2735 74.2508 69.6381C71.4387 71.0026 68.4308 71.6849 65.2271 71.6849C61.8098 71.6849 58.8434 70.9433 56.3279 69.4601C53.8125 67.9769 51.9792 65.8055 50.8283 62.9459C49.6773 60.0863 49.4459 56.5919 50.1341 52.4627C50.7749 48.4996 52.0801 45.1654 54.0498 42.4601C56.0194 39.7547 58.4222 37.7079 61.2581 36.3197C64.0939 34.9314 67.1256 34.2373 70.353 34.2373C73.7465 34.2373 76.6951 34.9848 79.1988 36.4798C81.7143 37.9749 83.5415 40.1641 84.6806 43.0474C85.8316 45.9307 86.063 49.4489 85.3748 53.6018ZM75.4077 52.4627C75.74 50.3744 75.7637 48.6183 75.4789 47.1944C75.1941 45.7587 74.5949 44.6789 73.6813 43.9551C72.7676 43.2195 71.5396 42.8516 69.997 42.8516C68.2409 42.8516 66.6866 43.2788 65.3339 44.1331C63.9812 44.9874 62.8599 46.2155 61.97 47.8174C61.0801 49.4192 60.4572 51.3474 60.1012 53.6018C59.7215 55.7139 59.6859 57.47 59.9944 58.8701C60.3148 60.2702 60.9436 61.3203 61.881 62.0204C62.8303 62.7205 64.0643 63.0705 65.5831 63.0705C67.3154 63.0705 68.8461 62.6552 70.175 61.8246C71.5158 60.994 72.6253 59.7897 73.5033 58.2116C74.3932 56.6335 75.028 54.7172 75.4077 52.4627ZM87.0345 71.1865L93.0859 34.7356H108.819C111.525 34.7356 113.809 35.228 115.672 36.2129C117.535 37.1977 118.876 38.6156 119.694 40.4667C120.513 42.3177 120.709 44.5365 120.282 47.1232C119.854 49.7336 118.911 51.9347 117.452 53.7264C116.004 55.5062 114.159 56.8589 111.916 57.7844C109.686 58.6981 107.182 59.1549 104.405 59.1549H95.0081L96.2896 51.466H103.694C104.856 51.466 105.877 51.3236 106.755 51.0389C107.633 50.7422 108.345 50.2795 108.891 49.6506C109.436 49.0098 109.792 48.1674 109.959 47.1232C110.125 46.0791 110.042 45.2307 109.709 44.5781C109.377 43.9136 108.825 43.4271 108.054 43.1186C107.283 42.7982 106.328 42.6381 105.189 42.6381H101.7L96.9303 71.1865H87.0345ZM111.169 54.4561L117.505 71.1865H106.755L100.632 54.4561H111.169ZM121.002 71.1865L127.054 34.7356H153.324L151.971 42.7093H135.597L134.6 48.9742H149.622L148.269 56.9479H133.248L132.251 63.2129H148.554L147.201 71.1865H121.002Z" fill="#FF002B"/>
<path d="M37.8625 90.3156C37.9778 89.0472 37.6703 88.0542 36.94 87.3367C36.2097 86.6064 34.9797 86.2412 33.25 86.2412C32.1481 86.2412 31.2256 86.3693 30.4825 86.6256C29.7522 86.8818 29.182 87.2342 28.772 87.6826C28.3748 88.1311 28.125 88.65 28.0225 89.2393C27.9072 89.7006 27.9136 90.1234 28.0417 90.5078C28.1827 90.8793 28.4453 91.2189 28.8297 91.5264C29.2269 91.8339 29.7458 92.1093 30.3864 92.3528C31.0398 92.5962 31.815 92.814 32.7119 93.0062L35.7869 93.6981C37.8881 94.1593 39.6498 94.7679 41.072 95.5239C42.507 96.267 43.6345 97.1511 44.4545 98.1761C45.2745 99.2011 45.8127 100.348 46.0689 101.616C46.338 102.885 46.3444 104.268 46.0881 105.767C45.6525 108.355 44.6467 110.546 43.0708 112.34C41.4948 114.134 39.4384 115.498 36.9016 116.434C34.3647 117.369 31.4306 117.837 28.0994 117.837C24.6913 117.837 21.7956 117.331 19.4125 116.318C17.0422 115.293 15.3253 113.73 14.2619 111.629C13.2112 109.515 12.955 106.818 13.4931 103.538H23.6406C23.4869 104.742 23.615 105.755 24.025 106.575C24.435 107.395 25.0948 108.016 26.0045 108.439C26.9142 108.862 28.0481 109.073 29.4063 109.073C30.5594 109.073 31.5459 108.932 32.3659 108.65C33.1859 108.368 33.833 107.978 34.307 107.478C34.7811 106.978 35.0694 106.408 35.1719 105.767C35.2744 105.178 35.1719 104.653 34.8644 104.191C34.5569 103.73 33.9995 103.314 33.1923 102.942C32.3852 102.571 31.2769 102.231 29.8675 101.924L26.1006 101.078C22.7566 100.309 20.2325 99.0409 18.5284 97.2728C16.8244 95.5047 16.2222 93.0831 16.7219 90.0081C17.1319 87.4968 18.1633 85.3059 19.8161 83.4353C21.4817 81.5518 23.5958 80.0912 26.1583 79.0534C28.7336 78.0028 31.5844 77.4775 34.7106 77.4775C37.8881 77.4775 40.5467 78.0092 42.6864 79.0726C44.8389 80.1361 46.3828 81.6287 47.3181 83.5506C48.2663 85.4725 48.5225 87.7275 48.0869 90.3156H37.8625ZM65.5279 78.0156L58.9935 117.375H48.3848L54.9191 78.0156H65.5279ZM78.5438 117.914C75.3407 117.914 72.7013 117.279 70.6257 116.011C68.5629 114.73 67.115 112.949 66.2822 110.668C65.4494 108.375 65.2829 105.716 65.7825 102.692C66.2822 99.6687 67.3264 97.0165 68.9152 94.7359C70.5039 92.4425 72.5475 90.6615 75.046 89.3931C77.5444 88.1118 80.4016 87.4712 83.6175 87.4712C86.8079 87.4712 89.4344 88.1118 91.4972 89.3931C93.5729 90.6615 95.0271 92.4425 95.8599 94.7359C96.7055 97.0165 96.8785 99.6687 96.3788 102.692C95.8791 105.716 94.8285 108.375 93.2269 110.668C91.6254 112.949 89.5754 114.73 87.0769 116.011C84.5913 117.279 81.7469 117.914 78.5438 117.914ZM79.8507 110.072C80.7732 110.072 81.6124 109.771 82.3683 109.169C83.1371 108.567 83.7905 107.708 84.3286 106.594C84.8796 105.479 85.2832 104.153 85.5394 102.615C85.7957 101.065 85.8341 99.7392 85.6547 98.6373C85.4754 97.5226 85.1038 96.6642 84.54 96.062C83.9763 95.4598 83.2332 95.1587 82.3107 95.1587C81.3882 95.1587 80.5425 95.4598 79.7738 96.062C79.005 96.6642 78.3516 97.5226 77.8135 98.6373C77.2754 99.7392 76.8782 101.065 76.6219 102.615C76.3657 104.153 76.3208 105.479 76.4874 106.594C76.6668 107.708 77.0383 108.567 77.6021 109.169C78.1786 109.771 78.9282 110.072 79.8507 110.072ZM120.748 87.8556L119.441 95.5431H99.9919L101.299 87.8556H120.748ZM106.219 80.7831H116.828L112.33 107.881C112.266 108.291 112.279 108.637 112.369 108.919C112.458 109.188 112.638 109.393 112.907 109.534C113.189 109.662 113.56 109.726 114.022 109.726C114.329 109.726 114.707 109.688 115.156 109.611C115.604 109.521 115.943 109.457 116.174 109.419L116.482 116.876C115.943 117.03 115.22 117.203 114.31 117.395C113.413 117.6 112.369 117.734 111.177 117.798C108.692 117.914 106.667 117.651 105.104 117.01C103.554 116.37 102.478 115.37 101.875 114.012C101.286 112.641 101.183 110.931 101.568 108.881L106.219 80.7831ZM150.052 97.465H140.519C140.571 96.85 140.462 96.3247 140.193 95.889C139.924 95.4534 139.546 95.1203 139.059 94.8897C138.585 94.659 138.047 94.5437 137.444 94.5437C136.394 94.5437 135.439 94.7807 134.581 95.2548C133.722 95.7161 133.242 96.3247 133.139 97.0806C133.075 97.3753 133.171 97.6507 133.428 97.907C133.684 98.1632 134.357 98.4003 135.446 98.6181L141.288 99.6943C144.209 100.232 146.336 101.213 147.669 102.635C149.014 104.044 149.501 105.908 149.129 108.227C148.784 110.239 147.899 111.969 146.477 113.416C145.055 114.864 143.249 115.979 141.058 116.76C138.879 117.529 136.471 117.914 133.831 117.914C129.18 117.914 125.695 116.985 123.376 115.127C121.07 113.269 120.019 110.841 120.224 107.843H130.526C130.551 108.804 130.872 109.528 131.487 110.015C132.114 110.489 132.947 110.739 133.985 110.764C135.113 110.803 136.099 110.578 136.945 110.092C137.79 109.592 138.264 108.97 138.367 108.227C138.405 107.805 138.22 107.484 137.81 107.266C137.412 107.049 136.65 106.831 135.523 106.613L130.449 105.69C127.528 105.165 125.401 104.115 124.068 102.539C122.736 100.95 122.274 98.9256 122.684 96.4656C123.018 94.5053 123.812 92.8589 125.068 91.5264C126.336 90.1939 128.002 89.1881 130.064 88.509C132.127 87.8172 134.51 87.4712 137.214 87.4712C141.634 87.4712 144.978 88.3617 147.246 90.1426C149.527 91.9107 150.462 94.3515 150.052 97.465Z" fill="#FF002B"/>
<path d="M102.469 131.544H61.6208C60.2618 131.544 59.1602 132.646 59.1602 134.005V134.005C59.1602 135.364 60.2618 136.465 61.6208 136.465H102.469C103.828 136.465 104.93 135.364 104.93 134.005C104.93 132.646 103.828 131.544 102.469 131.544Z" fill="#FF002B"/>
<path d="M188.48 141.083V35.2615C188.48 33.9025 188.236 32.8008 187.934 32.8008C187.632 32.8008 187.387 33.9025 187.387 35.2615V141.083C187.387 142.442 187.632 143.544 187.934 143.544C188.236 143.544 188.48 142.442 188.48 141.083Z" fill="white"/>
<path d="M94.6525 139.398H68.4841C67.1251 139.398 66.0234 140.5 66.0234 141.859V141.859C66.0234 143.218 67.1251 144.319 68.4841 144.319H94.6525C96.0116 144.319 97.1132 143.218 97.1132 141.859V141.859C97.1132 140.5 96.0116 139.398 94.6525 139.398Z" fill="#FF002B"/>
<path d="M301.11 131.544H260.261C258.902 131.544 257.801 132.646 257.801 134.005V134.005C257.801 135.364 258.902 136.465 260.261 136.465H301.11C302.469 136.465 303.57 135.364 303.57 134.005C303.57 132.646 302.469 131.544 301.11 131.544Z" fill="#FF002B"/>
<path d="M293.293 139.398H267.125C265.766 139.398 264.664 140.5 264.664 141.859V141.859C264.664 143.218 265.766 144.319 267.125 144.319H293.293C294.652 144.319 295.754 143.218 295.754 141.859V141.859C295.754 140.5 294.652 139.398 293.293 139.398Z" fill="#FF002B"/>
<mask id="mask0_15184_39" style="mask-type:luminance" maskUnits="userSpaceOnUse" x="212" y="0" width="137" height="85">
<path d="M337.048 0.372187L212.732 23.9932L224.324 85.0002L348.64 61.3792L337.048 0.372187Z" fill="white"/>
</mask>
<g mask="url(#mask0_15184_39)">
<path d="M327.967 29.1754L327.825 29.3306C327.519 29.5309 327.42 29.7633 327.528 30.0276C328.493 32.549 329.529 34.986 330.634 37.3385C330.785 37.68 331.104 37.7761 331.591 37.6266L331.782 37.5048C333.78 35.8155 335.365 33.6919 336.54 31.1341C336.934 30.3473 336.724 29.8462 335.91 29.6307C334.107 29.1762 331.602 29.0256 328.397 29.1791L327.967 29.1754ZM329.016 30.8553C328.973 30.7781 328.943 30.6983 328.927 30.6158C328.957 30.4679 329.049 30.3507 329.204 30.2643L329.321 30.1994L331.504 30.1689C333.031 30.2204 334.05 30.3115 334.562 30.4421C335.013 30.5557 335.226 30.7003 335.202 30.8756L330.074 33.2595L329.016 30.8553ZM334.675 36.9124C333.96 37.8171 333.251 38.6066 332.549 39.281L332.174 39.5658L331.544 39.6427L333.845 48.8151C334.019 49.5793 334.385 50.4494 334.942 51.4254C335.268 51.9331 335.784 52.6892 336.49 53.694C336.82 54.2291 338.197 56.2026 340.62 59.6145C340.772 59.8134 340.981 59.9304 341.245 59.9656C341.532 59.968 341.737 59.8436 341.861 59.5923C342.4 58.6641 342.599 57.829 342.458 57.0871C342.135 55.3833 341.812 53.8359 341.49 52.4448C340.941 49.702 340.411 47.6672 339.901 46.3404L334.675 36.9124ZM340.927 54.901C341.332 55.6781 341.443 56.3403 341.261 56.8874C341.17 57.161 341.013 57.3901 340.791 57.5748L340.641 57.6887L340.568 57.5317C338.424 54.8355 336.703 52.2582 335.406 49.7998C335.157 49.3916 335.114 49.0153 335.278 48.671L335.679 48.2959L335.704 48.2056L340.927 54.901ZM327.076 14.9945C327.027 14.8898 326.512 14.0623 325.53 12.5119C323.458 9.88769 322.004 7.88608 321.169 6.50711C321.022 6.33574 320.836 6.25731 320.609 6.27183C320.373 6.23138 320.201 6.30672 320.094 6.49785C319.825 6.89061 319.605 7.38804 319.433 7.99014C319.3 8.64196 319.272 9.17397 319.35 9.58618C319.439 10.0534 319.776 11.5268 320.362 14.0066C321.001 16.6185 321.578 18.6015 322.093 19.9558L326.789 27.9471L327.405 27.5738L327.778 27.5029C328.677 27.4174 329.725 27.4319 330.92 27.5465L328.308 18.0916C328.087 17.0801 327.676 16.0477 327.076 14.9945ZM321.089 7.88917L321.153 8.00496C322.903 10.4344 324.573 12.8933 326.162 15.3817C326.627 16.1758 326.552 16.7596 325.936 17.1329L325.861 17.1898L325.788 17.0328C323.233 14.1301 321.538 12.0605 320.702 10.8242C320.288 10.3049 320.209 9.66491 320.466 8.90441C320.602 8.56538 320.759 8.26494 320.938 8.00311L321.089 7.88917Z" fill="#FF0026"/>
<path d="M313.333 32.5965C312.111 32.9426 310.962 33.3745 309.887 33.892L309.499 37.7241C308.189 37.005 306.864 36.3598 305.524 35.7886L302.218 37.1429L302.745 38.1104C304.009 38.5822 305.815 39.3495 308.163 40.4123C308.008 41.5523 307.731 42.9573 307.333 44.6275L309.259 43.9198C309.313 44.5074 309.212 44.9537 308.955 45.2588C308.76 45.4382 308.375 45.668 307.798 45.9484L306.046 46.6658C305.674 46.8218 305.475 47.2014 305.446 47.8047C305.459 48.1725 305.505 48.4911 305.585 48.7607L311.894 45.8108L311.33 41.2626C312.141 41.7635 313.341 42.7313 314.93 44.1662L317.734 42.6512C317.443 42.4786 315.678 41.248 312.438 38.9594C312.941 35.2763 313.239 33.1554 313.333 32.5965ZM285.466 31.2288C282.885 33.3137 280.612 35.0554 278.645 36.4542C277.829 36.9794 277.255 37.5725 276.922 38.2336C276.765 38.4627 276.559 38.9575 276.303 39.718C276.217 40.0191 276.303 40.1735 276.562 40.1812L289.171 42.1417C289.029 41.9978 288.962 41.8683 288.969 41.7531C288.953 41.6707 289.023 41.5863 289.178 41.4998C295.667 37.9891 301.121 35.3583 305.539 33.6076C309.276 32.1857 312.066 31.2001 313.908 30.6508C315.218 30.3164 316.577 30.0867 317.985 29.9616L319.912 29.9371C320.446 30.0349 320.771 30.3148 320.887 30.7768C321.498 32.483 322.377 34.551 323.526 36.9807C324.728 39.5426 325.723 41.3894 326.511 42.521C326.33 42.9255 326.041 43.137 325.644 43.1555C325.395 43.2028 324.752 42.7555 323.714 41.8138C323.566 41.7851 323.409 41.7865 323.243 41.8179C311.144 48.644 295.827 55.5547 277.292 62.5503C256.482 70.3767 241.824 74.1299 233.319 73.8097L233.335 73.8921L228.943 76.9902C229.507 77.3956 230.528 78.0985 232.006 79.0989C233.848 79.6031 236.292 78.9822 239.337 77.2361L240.355 78.7511C240.636 79.3242 241.005 79.6099 241.463 79.6084C241.865 79.6173 242.885 79.3381 244.523 78.7705C250.527 76.7756 260.78 73.1902 275.282 68.0146C291.073 62.3946 301.32 58.6255 306.021 56.7071C315.197 53.0274 321.528 50.1162 325.014 47.9733C327.6 46.3714 329.098 44.9906 329.507 43.8308C329.991 42.4577 329.608 40.3666 328.358 37.5574C326.147 32.3969 324.898 29.5163 324.613 28.9158C323.918 27.8234 323.046 27.1492 321.996 26.8932C321.242 26.6946 320.269 26.6945 319.076 26.8927C317.032 27.2812 315.031 27.7468 313.073 28.2896C310.097 29.1968 307.143 30.0712 304.212 30.9129C301.667 31.6812 299.2 31.6517 296.81 30.8245C294.415 29.9698 293.02 29.4804 292.624 29.3563C291.447 29.0389 290.495 28.9209 289.766 29.0024C288.695 29.092 287.262 29.8341 285.466 31.2288ZM288.791 37.4305C288.538 36.8522 288.847 36.3665 289.717 35.9734C289.877 35.9144 290.814 35.4232 292.528 34.4996C292.838 34.3267 292.965 34.0891 292.908 33.7868C292.905 33.4741 292.767 33.2726 292.492 33.1824L288.35 31.4924C289.44 30.6019 290.714 30.3742 292.17 30.8092C294.111 31.3801 295.893 32.0238 297.517 32.7401C297.863 32.9022 298.032 33.1122 298.024 33.37C298.021 33.6553 297.9 33.8491 297.662 33.9513L289.471 38.0701C289.148 37.8753 288.921 37.6621 288.791 37.4305ZM255.054 39.7408C251.309 39.3134 248.015 40.58 245.171 43.5405L245.179 43.5817L249.927 48.2318C250.069 48.3757 250.203 48.4071 250.331 48.3258L255.754 45.4589L256.061 46.1694C256.183 46.6588 256.183 47.1142 256.063 47.5357C255.96 47.897 255.733 48.2105 255.383 48.4764L251.847 50.4295L253.425 52.1798L257.502 49.9103C257.985 51.0997 257.988 51.8679 257.51 52.215L254.995 53.8888L258.633 57.8956L257.028 58.7131C252.137 61.2938 249.278 62.5915 248.45 62.6064C246.824 62.6308 244.114 61.3234 240.32 58.6844C236.47 55.743 234.073 54.0488 233.129 53.6017C231.643 52.8591 229.879 52.8384 227.836 53.5396C226.198 54.1071 224.007 55.3064 221.264 57.1374C220.448 57.6627 220.147 58.7163 220.362 60.2985L225.301 57.8224C225.638 58.8405 225.559 59.4818 225.066 59.7464C223.418 60.7144 221.954 61.5194 220.673 62.1613C220.228 62.5306 220.166 63.4107 220.488 64.8018L222.789 63.8092C222.917 63.728 223.033 63.7345 223.136 63.8287L233.333 72.5258C233.742 72.4196 234.623 72.0815 235.974 71.5115L228.406 63.7671C228.33 63.6676 228.295 63.5603 228.302 63.4452C228.364 63.3195 228.431 63.2213 228.503 63.1506C229.523 62.6436 230.279 62.3291 230.771 62.2071C232.026 61.8832 233.193 62.0744 234.272 62.7805C235.384 63.5089 236.678 64.1456 238.156 64.6906C240.392 65.4616 242.409 65.7615 244.209 65.5905C245.114 65.5324 245.567 65.6598 245.569 65.9726L243.856 66.8961C243.435 67.09 243.27 67.5056 243.363 68.1429C243.448 68.44 243.558 68.718 243.693 68.9771L262.808 61.1168C262.903 61.0134 263.016 61.0061 263.148 61.0951L265.534 63.0334C265.823 63.3486 266.169 63.4394 266.573 63.3057C268.94 62.6567 274.923 60.324 284.521 56.3079C294.076 52.2145 299.185 49.8771 299.847 49.2956C300.16 48.9801 300.318 48.3806 300.321 47.4972C300.277 46.9646 299.887 46.6402 299.149 46.5241C275.674 42.5851 260.975 40.324 255.054 39.7408Z" fill="#FF0026"/>
</g>
<mask id="mask1_15184_39" style="mask-type:luminance" maskUnits="userSpaceOnUse" x="203" y="85" width="152" height="40">
<path d="M354.231 85H203.678V124.032H354.231V85Z" fill="white"/>
</mask>
<g mask="url(#mask1_15184_39)">
<path fill-rule="evenodd" clip-rule="evenodd" d="M253.627 96.7944L249.193 114.414C248.824 115.822 247.993 117.035 246.694 118.045C245.395 119.055 244.021 119.563 242.583 119.563L248.322 96.7944H241.226L240.493 100.246L234.807 123.016H241.705C245.071 123.016 248.27 121.769 251.306 119.281C254.343 116.793 256.271 113.865 257.102 110.499L259.666 100.246L260.531 96.7944H253.627Z" fill="#FF0026"/>
<path fill-rule="evenodd" clip-rule="evenodd" d="M272.754 86.0332C272.176 85.3463 271.408 85 270.45 85C269.486 85 268.608 85.3463 267.806 86.0332C267.009 86.7203 266.53 87.5459 266.374 88.5041C266.207 89.5031 266.415 90.34 266.992 91.027C267.564 91.7141 268.331 92.0606 269.29 92.0606C270.254 92.0606 271.137 91.708 271.94 91.0041C272.736 90.2995 273.222 89.4682 273.377 88.5041C273.533 87.5459 273.325 86.7203 272.754 86.0332ZM266.282 116.989C266.294 116.92 266.317 116.833 266.351 116.729C266.386 116.625 266.409 116.561 266.415 116.521L271.351 96.7941H259.914L259.043 100.246H263.62L259.51 116.521C259.453 116.665 259.406 116.867 259.36 117.144C259.065 118.928 259.522 120.343 260.722 121.394C261.923 122.439 263.707 122.964 266.08 122.964H267.108L267.985 119.512C266.611 119.309 266.039 118.467 266.282 116.989ZM285.304 115.649C285.027 116.712 284.415 117.624 283.469 118.38C282.522 119.136 281.512 119.512 280.449 119.512C278.457 119.512 277.62 118.553 277.932 116.625C277.938 116.596 277.961 116.509 278.002 116.371C278.042 116.232 278.065 116.128 278.076 116.059L281.384 102.821C281.835 101.107 282.781 100.246 284.225 100.246H289.172L285.304 115.649ZM291.73 117.607C291.741 117.537 291.764 117.468 291.793 117.399C291.821 117.334 291.84 117.266 291.851 117.196L296.949 96.7941H285.051C282.574 96.7941 280.27 97.493 278.14 98.8843C276.004 100.275 274.682 102.019 274.168 104.109L271.293 115.649C271.23 115.822 271.178 116.042 271.137 116.319C270.82 118.241 271.379 119.829 272.823 121.082C274.266 122.334 276.154 122.964 278.492 122.964H279.572C281.598 122.964 283.48 122.26 285.224 120.851C286.095 122.26 287.729 122.964 290.131 122.964H292.555L293.427 119.512C292.099 119.442 291.534 118.807 291.73 117.607ZM325.214 103.543L325.121 104.109L322.252 115.649C321.946 116.885 321.444 117.837 320.751 118.507C320.058 119.177 319.337 119.511 318.581 119.511C317.894 119.511 317.368 119.205 317.005 118.582C316.641 117.964 316.543 117.179 316.698 116.215C316.71 116.146 316.733 116.053 316.774 115.932C316.808 115.811 316.832 115.719 316.843 115.649L319.712 104.109C320.001 102.977 320.48 102.059 321.144 101.355C321.808 100.651 322.552 100.298 323.378 100.298C324.065 100.298 324.585 100.582 324.937 101.147C325.289 101.719 325.387 102.516 325.214 103.543ZM330.467 98.6762C329.041 97.4237 327.165 96.7941 324.827 96.7941H323.747C321.202 96.7941 318.881 97.4988 316.779 98.9074C314.678 100.316 313.373 102.054 312.865 104.109L309.938 115.649C309.866 115.867 309.814 116.092 309.782 116.319C309.459 118.276 310.019 119.87 311.468 121.111C312.912 122.346 314.822 122.964 317.189 122.964H318.217C320.728 122.964 323.038 122.248 325.162 120.828C327.287 119.402 328.597 117.676 329.105 115.649L332.026 104.109L332.136 103.445C332.448 101.517 331.893 99.9294 330.467 98.6762ZM351.718 96.7943C348.936 96.7943 346.528 97.5331 344.502 99.0113L345.021 96.7943H338.152L331.558 122.964H338.463L342.048 108.647C342.505 106.891 343.399 105.252 344.733 103.728C346.066 102.198 347.567 101.142 349.247 100.559L348.427 103.959H352.192L354.033 96.7943H351.718ZM221.332 104.443L221.343 104.365L224.509 92.0103C224.743 90.9771 225.232 90.1214 225.976 89.4547C226.721 88.7886 227.565 88.4549 228.487 88.4549C229.354 88.4549 229.987 88.744 230.409 89.3327C230.82 89.9105 230.964 90.6546 230.82 91.544L230.743 92.0103L227.576 104.365L227.554 104.443H221.332ZM235.742 86.955C234.164 85.6552 232.042 85.0001 229.365 85.0001C226.443 85.0001 223.876 85.7334 221.643 87.1889C219.41 88.6442 217.999 90.5773 217.399 92.9879L214.532 104.365C212.11 104.365 209.866 104.376 208.122 104.376C205.656 104.376 203.678 106.387 203.678 108.854H213.399L209.855 122.963H216.699L220.255 108.854H226.487L224.276 117.608C224.21 117.775 224.165 117.997 224.121 118.275C223.876 119.753 224.165 120.908 224.998 121.73C225.821 122.552 227.076 122.963 228.754 122.963H231.487L232.365 119.508C231.376 119.442 230.964 118.908 231.132 117.919L237.386 92.9881C237.397 92.9107 237.42 92.777 237.475 92.5768C237.531 92.3659 237.553 92.2322 237.564 92.1549C237.92 89.9995 237.308 88.266 235.742 86.955ZM309.753 96.7943L311.318 90.7211H304.413L302.901 96.7943H299.512L298.634 100.247H302.029L297.907 116.573C297.895 116.642 297.867 116.764 297.82 116.937C297.774 117.11 297.751 117.226 297.74 117.3C297.451 119.049 297.791 120.43 298.756 121.445C299.726 122.456 301.186 122.964 303.143 122.964H305.568L306.451 119.459C305.031 119.327 304.442 118.518 304.685 117.041C304.696 116.971 304.719 116.885 304.754 116.781C304.783 116.677 304.806 116.613 304.812 116.573L308.928 100.246H311.866L312.744 96.7943H309.753Z" fill="#FF0026"/>
</g>
</svg>
