<svg width="15" height="15" viewBox="0 0 15 15" fill="none" xmlns="http://www.w3.org/2000/svg">
<g clip-path="url(#clip0_1_74)">
<path d="M7.22061 14.2972C5.82104 14.2972 4.45291 13.8822 3.28922 13.1046C2.12552 12.327 1.21853 11.2219 0.682943 9.92884C0.147353 8.63581 0.00721848 7.213 0.28026 5.84033C0.553301 4.46766 1.22725 3.20678 2.2169 2.21714C3.20654 1.2275 4.46742 0.553545 5.84009 0.280504C7.21276 0.00746262 8.63557 0.147597 9.9286 0.683187C11.2216 1.21878 12.3268 2.12577 13.1044 3.28946C13.8819 4.45316 14.2969 5.82129 14.2969 7.22085C14.295 9.09702 13.5489 10.8958 12.2222 12.2225C10.8956 13.5491 9.09678 14.2953 7.22061 14.2972ZM7.22061 1.29985C6.04954 1.29985 4.90478 1.64711 3.93108 2.29772C2.95737 2.94833 2.19846 3.87306 1.75032 4.95498C1.30217 6.0369 1.18491 7.22742 1.41338 8.37598C1.64184 9.52454 2.20576 10.5796 3.03383 11.4076C3.8619 12.2357 4.91692 12.7996 6.06548 13.0281C7.21404 13.2565 8.40456 13.1393 9.48648 12.6911C10.5684 12.243 11.4931 11.4841 12.1437 10.5104C12.7943 9.53668 13.1416 8.39192 13.1416 7.22085C13.1416 6.4433 12.9885 5.67335 12.6909 4.95498C12.3933 4.23661 11.9572 3.58389 11.4074 3.03407C10.8576 2.48426 10.2048 2.04812 9.48648 1.75056C8.76811 1.453 7.99817 1.29985 7.22061 1.29985ZM7.22061 11.6009C7.0674 11.6009 6.92047 11.5401 6.81214 11.4318C6.70381 11.3234 6.64295 11.1765 6.64295 11.0233V7.79851H3.41817C3.26497 7.79851 3.11804 7.73765 3.0097 7.62932C2.90137 7.52099 2.84051 7.37406 2.84051 7.22085C2.84051 7.06765 2.90137 6.92072 3.0097 6.81239C3.11804 6.70405 3.26497 6.64319 3.41817 6.64319H6.64295V3.41841C6.64295 3.26521 6.70381 3.11828 6.81214 3.00995C6.92047 2.90162 7.0674 2.84076 7.22061 2.84076C7.37381 2.84076 7.52074 2.90162 7.62907 3.00995C7.73741 3.11828 7.79827 3.26521 7.79827 3.41841V6.64319H11.023C11.1763 6.64319 11.3232 6.70405 11.4315 6.81239C11.5398 6.92072 11.6007 7.06765 11.6007 7.22085C11.6007 7.37406 11.5398 7.52099 11.4315 7.62932C11.3232 7.73765 11.1763 7.79851 11.023 7.79851H7.79827V11.0233C7.79827 11.1765 7.73741 11.3234 7.62907 11.4318C7.52074 11.5401 7.37381 11.6009 7.22061 11.6009Z" fill="white" fill-opacity="0.51"/>
</g>
<defs>
<clipPath id="clip0_1_74">
<rect width="14.4415" height="14.4415" fill="white"/>
</clipPath>
</defs>
</svg>
